# Blender v2.93.0 OBJ File: ''
# www.blender.org
mtllib skycube.mtl
o cube_Cube.001
v -1.000000 1.000000 -1.000000
v 1.000000 1.000000 1.000000
v 1.000000 1.000000 -1.000000
v -1.000000 -1.000000 1.000000
v 1.000000 -1.000000 1.000000
v -1.000000 1.000000 1.000000
v -1.000000 -1.000000 -1.000000
v 1.000000 -1.000000 -1.000000
vt 0.500000 0.666670
vt 0.250000 1.000000
vt 0.250000 0.666670
vt 1.000003 0.666670
vt 0.749998 0.333340
vt 1.000003 0.333340
vt 0.749999 0.666670
vt 0.500004 0.333338
vt 0.250000 0.333330
vt 0.500000 0.000000
vt 0.000002 0.333338
vt 0.499998 0.666601
vt 0.500000 1.000000
vt 0.250000 0.000000
vt 0.000002 0.666670
vn 0.0000 1.0000 0.0000
vn 0.0000 -0.0000 1.0000
vn -1.0000 0.0000 0.0000
vn 0.0000 -1.0000 -0.0000
vn 1.0000 0.0000 0.0000
vn 0.0000 0.0000 -1.0000
usemtl Default_OBJ
s off
f 1/1/1 2/2/1 3/3/1
f 2/4/2 4/5/2 5/6/2
f 6/7/3 7/8/3 4/5/3
f 8/9/4 4/10/4 7/8/4
f 3/3/5 5/11/5 8/9/5
f 1/12/6 8/9/6 7/8/6
f 1/1/1 6/13/1 2/2/1
f 2/4/2 6/7/2 4/5/2
f 6/7/3 1/1/3 7/8/3
f 8/9/4 5/14/4 4/10/4
f 3/3/5 2/15/5 5/11/5
f 1/12/6 3/3/6 8/9/6
