# Blender v2.93.0 OBJ File: ''
# www.blender.org
mtllib piratesword.mtl
o Box002_Mesh
v 0.109127 -0.110805 -0.191026
v -0.090246 -0.110805 -0.131832
v -0.090246 -0.110805 -0.191026
v 0.109127 0.098409 -0.191026
v -0.090246 0.098409 -0.131832
v 0.109127 0.098409 -0.131832
v -0.425442 -0.019527 1.235287
v -0.371295 -0.002976 1.115347
v -0.352869 -0.016305 1.090323
v 0.205218 0.012472 -0.539407
v 0.228677 -0.023200 -0.544723
v 0.205218 -0.023200 -0.539407
v -0.061358 -0.051028 -0.773130
v 0.080239 0.038631 -0.773130
v 0.080239 -0.051028 -0.773130
v -0.068202 0.043438 -0.532698
v -0.068202 -0.055834 -0.578675
v -0.068202 -0.055834 -0.532698
v 0.087083 -0.055834 -0.233693
v -0.068202 -0.055834 -0.168853
v -0.068202 -0.055834 -0.233693
v -0.068202 0.043438 -0.233693
v 0.087083 0.043438 -0.168853
v 0.087083 0.043438 -0.233693
v 0.087083 -0.055834 -0.168853
v -0.210490 0.024823 -0.131832
v -0.210927 -0.039107 -0.191026
v -0.210927 -0.039107 -0.131832
v 0.172695 0.069775 -0.191026
v 0.113662 -0.024420 -0.143050
v 0.201795 0.045861 -0.131832
v 0.084897 0.005583 -0.143050
v 0.172695 -0.097676 -0.131832
v 0.109127 -0.110805 -0.131832
v 0.201795 0.045861 -0.191026
v 0.216322 -0.064138 -0.191026
v -0.182914 -0.082751 -0.191026
v -0.109149 -0.004676 -0.143050
v -0.200833 -0.060109 -0.131832
v -0.109149 -0.024420 -0.143050
v -0.090246 0.098409 -0.191026
v -0.182914 0.061750 -0.131832
v -0.200833 0.044233 -0.191026
v -0.068202 0.043438 -0.168853
v 0.254974 0.038530 -0.163862
v 0.225688 0.038530 -0.215304
v 0.254974 -0.049257 -0.163862
v 0.216322 -0.064138 -0.131832
v 0.225688 -0.049257 -0.215304
v -0.200833 -0.060109 -0.191026
v -0.200833 0.044233 -0.131832
v -0.210490 0.024823 -0.191026
v 0.311439 0.038530 -0.287113
v 0.266199 0.038530 -0.325287
v 0.311439 -0.049257 -0.287113
v 0.266199 -0.049257 -0.325287
v 0.320510 0.038530 -0.456582
v 0.262431 0.038530 -0.468014
v 0.320510 -0.049257 -0.456582
v 0.262431 -0.049257 -0.468014
v 0.228677 0.012472 -0.544723
v -0.182914 -0.082751 -0.131832
v 0.172695 -0.097676 -0.191026
v 0.172695 0.069775 -0.131832
v -0.182914 0.061750 -0.191026
v 0.087083 -0.055834 -0.578675
v -0.099405 -0.083626 -0.614133
v 0.119411 -0.083626 -0.614133
v -0.099405 0.061815 -0.614133
v 0.087083 0.043438 -0.578675
v -0.068202 0.043438 -0.578675
v 0.119411 0.061815 -0.614133
v 0.119411 -0.083626 -0.732365
v -0.099405 -0.083626 -0.732365
v -0.099405 0.061815 -0.732365
v 0.119411 0.061815 -0.732365
v -0.061358 0.038631 -0.773130
v -0.087411 -0.024420 0.395438
v 0.084897 0.005584 0.395438
v 0.131065 -0.024420 0.395438
v -0.087411 -0.004676 0.395438
v -0.102735 -0.024420 0.459904
v 0.124652 -0.024420 0.541249
v -0.102735 -0.004676 0.459904
v 0.078483 0.005584 0.541249
v -0.136046 -0.024420 0.581865
v 0.056178 -0.024420 0.733173
v -0.136046 -0.004676 0.581865
v 0.010010 0.005584 0.733173
v -0.208479 -0.024420 0.743695
v -0.030996 -0.024420 0.941911
v -0.208479 -0.004676 0.743695
v -0.077165 0.005584 0.941911
v -0.166682 -0.024420 1.089328
v -0.312786 -0.017918 0.892529
v -0.328271 -0.024420 0.840535
v -0.212851 0.005584 1.089328
v -0.328757 -0.021139 1.201718
v -0.331212 -0.017785 0.892529
v -0.374926 0.002513 1.201718
v -0.328271 -0.004676 0.840535
v -0.471611 -0.002866 1.235287
v -0.077967 -0.062077 -0.236896
v 0.096849 -0.062077 -0.287840
v -0.077967 -0.062077 -0.287840
v -0.077967 0.049681 -0.287840
v 0.096849 0.049681 -0.236896
v 0.096849 0.049681 -0.287840
v 0.096849 -0.062077 -0.236896
v -0.077967 0.049681 -0.236896
v 0.087083 -0.055834 -0.291071
v -0.068202 -0.055834 -0.291071
v -0.068202 0.043438 -0.291071
v 0.087083 0.043438 -0.291071
v -0.068202 0.043438 -0.354776
v -0.077967 -0.062077 -0.360525
v -0.068202 -0.055834 -0.354776
v 0.096849 -0.062077 -0.409025
v -0.077967 -0.062077 -0.409025
v -0.077967 0.049681 -0.409025
v 0.096849 0.049681 -0.360525
v 0.096849 0.049681 -0.409025
v 0.096849 -0.062077 -0.360525
v -0.077967 0.049681 -0.360525
v 0.087083 -0.055834 -0.414678
v -0.068202 -0.055834 -0.414678
v -0.068202 0.043438 -0.414678
v 0.087083 0.043438 -0.414678
v -0.068202 0.043438 -0.479302
v -0.077967 -0.062077 -0.483263
v -0.068202 -0.055834 -0.479302
v 0.096849 -0.062077 -0.529237
v -0.077967 -0.062077 -0.529237
v -0.077967 0.049680 -0.529237
v 0.096849 0.049681 -0.483263
v 0.096849 0.049680 -0.529237
v 0.096849 -0.062077 -0.483263
v -0.077967 0.049681 -0.483263
v 0.087083 -0.055834 -0.532698
v 0.087083 0.043438 -0.532698
v 0.087083 -0.055834 -0.354776
v 0.087083 0.043438 -0.354776
v 0.087083 -0.055834 -0.479302
v 0.087083 0.043438 -0.479302
vt 0.065802 0.713747
vt 0.209653 0.695487
vt 0.209653 0.713747
vt 0.461588 0.625559
vt 0.366141 0.613444
vt 0.461588 0.613444
vt 0.959933 0.903448
vt 0.966877 0.897016
vt 0.966876 0.897014
vt 0.300546 0.676351
vt 0.279364 0.509479
vt 0.300546 0.509479
vt 0.227488 0.503380
vt 0.065802 0.665066
vt 0.065802 0.503380
vt 0.459825 0.386829
vt 0.414471 0.288900
vt 0.459826 0.288900
vt 0.724358 0.298884
vt 0.842592 0.269229
vt 0.842592 0.298884
vt 0.876332 0.304924
vt 0.978597 0.279274
vt 0.978597 0.304924
vt 0.593081 0.401258
vt 0.542472 0.272267
vt 0.593081 0.272267
vt 0.343041 0.575535
vt 0.325147 0.434572
vt 0.343041 0.434572
vt 0.279364 0.676351
vt 0.300546 0.676351
vt 0.300546 0.676351
vt 0.905064 0.528567
vt 0.969744 0.547388
vt 0.891659 0.559502
vt 0.300546 0.509479
vt 0.279364 0.509479
vt 0.279364 0.509479
vt 0.300546 0.509479
vt 0.300546 0.676351
vt 0.300546 0.509479
vt 0.343041 0.434572
vt 0.325147 0.434572
vt 0.325147 0.434572
vt 0.343041 0.575535
vt 0.343041 0.434572
vt 0.343041 0.434572
vt 0.325147 0.575535
vt 0.343041 0.575535
vt 0.343041 0.575535
vt 0.325147 0.434572
vt 0.325147 0.575535
vt 0.325147 0.575535
vt 0.279364 0.676351
vt 0.300546 0.676351
vt 0.279364 0.676351
vt 0.279364 0.509479
vt 0.279364 0.509479
vt 0.300546 0.509479
vt 0.325147 0.434572
vt 0.343041 0.575535
vt 0.325147 0.575535
vt 0.279364 0.676351
vt 0.300546 0.676351
vt 0.279364 0.509479
vt 0.300546 0.509479
vt 0.279364 0.676351
vt 0.300546 0.676351
vt 0.279364 0.509479
vt 0.300546 0.509479
vt 0.279364 0.676351
vt 0.065802 0.695487
vt 0.065802 0.695487
vt 0.343041 0.434572
vt 0.065802 0.713747
vt 0.209653 0.713747
vt 0.300546 0.509479
vt 0.279364 0.509479
vt 0.723948 0.488810
vt 0.660222 0.597003
vt 0.616243 0.539382
vt 0.963083 0.562417
vt 0.940260 0.605572
vt 0.279364 0.676351
vt 0.300546 0.676351
vt 0.366141 0.625559
vt 0.461588 0.625559
vt 0.325147 0.575535
vt 0.065802 0.503380
vt 0.227488 0.503380
vt 0.065802 0.503380
vt 0.227488 0.503380
vt 0.227488 0.665066
vt 0.065802 0.665066
vt 0.227488 0.665066
vt 0.065802 0.665066
vt 0.065802 0.503380
vt 0.227488 0.503380
vt 0.227488 0.665066
vt 0.065802 0.665066
vt 0.227488 0.665066
vt 0.792235 0.917674
vt 0.938200 0.801635
vt 0.623337 0.891975
vt 0.949180 0.979792
vt 0.861228 0.962319
vt 0.863909 0.953589
vt 0.807614 0.901032
vt 0.932303 0.773574
vt 0.909704 0.913851
vt 0.739316 0.760943
vt 0.907378 0.918404
vt 0.964339 0.901970
vt 0.724561 0.944274
vt 0.963848 0.897798
vt 0.940948 0.905743
vt 0.940808 0.905764
vt 0.966418 0.897743
vt 0.721876 0.953028
vt 0.690626 0.943859
vt 0.966047 0.896963
vt 0.956571 0.901778
vt 0.956359 0.898961
vt 0.966875 0.897087
vt 0.687935 0.952642
vt 0.652848 0.945051
vt 0.966718 0.896885
vt 0.964304 0.909576
vt 0.975069 0.901402
vt 0.966873 0.896999
vt 0.966874 0.896995
vt 0.618154 0.964030
vt 0.541579 0.963270
vt 0.620851 0.955195
vt 0.971171 0.901883
vt 0.966866 0.896993
vt 0.961583 0.893461
vt 0.966853 0.896958
vt 0.965498 0.900189
vt 0.650153 0.953861
vt 0.967341 0.905747
vt 0.538541 0.971443
vt 0.527943 0.973768
vt 0.960644 0.900227
vt 0.297862 0.209991
vt 0.296913 0.141027
vt 0.297862 0.141027
vt 0.358072 0.162990
vt 0.428449 0.155748
vt 0.428449 0.162990
vt 0.064618 0.160392
vt 0.132795 0.153377
vt 0.132795 0.160392
vt 0.177525 0.220972
vt 0.169124 0.139331
vt 0.177525 0.139331
vt 0.296913 0.209991
vt 0.289817 0.141027
vt 0.358072 0.163963
vt 0.428449 0.163963
vt 0.064618 0.161334
vt 0.132795 0.161334
vt 0.178653 0.220972
vt 0.178653 0.139331
vt 0.277188 0.209991
vt 0.275862 0.141027
vt 0.277188 0.141027
vt 0.358072 0.184126
vt 0.428449 0.177232
vt 0.428449 0.184126
vt 0.064618 0.180867
vt 0.132795 0.174188
vt 0.132795 0.180867
vt 0.202043 0.220972
vt 0.194045 0.139331
vt 0.202043 0.139331
vt 0.275862 0.209991
vt 0.269105 0.141027
vt 0.358072 0.185464
vt 0.428449 0.185464
vt 0.064618 0.182164
vt 0.132795 0.182164
vt 0.203596 0.220972
vt 0.203596 0.139331
vt 0.259344 0.209991
vt 0.258320 0.141027
vt 0.259344 0.141027
vt 0.358072 0.201668
vt 0.428449 0.195132
vt 0.428449 0.201668
vt 0.064618 0.197860
vt 0.132795 0.191529
vt 0.132795 0.197860
vt 0.222392 0.220972
vt 0.214811 0.139331
vt 0.222392 0.139331
vt 0.258320 0.209991
vt 0.251916 0.141027
vt 0.358072 0.202633
vt 0.428449 0.202633
vt 0.064618 0.198795
vt 0.132795 0.198795
vt 0.223512 0.220972
vt 0.223512 0.139331
vt 0.724357 0.362816
vt 0.842592 0.314311
vt 0.842592 0.362816
vt 0.876332 0.360221
vt 0.978597 0.318267
vt 0.978597 0.360222
vt 0.653504 0.401258
vt 0.570727 0.272267
vt 0.653504 0.272267
vt 0.288864 0.209991
vt 0.288864 0.141027
vt 0.358072 0.155748
vt 0.428449 0.154780
vt 0.064618 0.153377
vt 0.132795 0.152439
vt 0.168001 0.220972
vt 0.168001 0.139331
vt 0.499969 0.386829
vt 0.461547 0.288900
vt 0.499969 0.288900
vt 0.478518 0.288900
vt 0.415674 0.386829
vt 0.415674 0.288900
vt 0.358072 0.177232
vt 0.428449 0.175878
vt 0.064618 0.174188
vt 0.132795 0.172877
vt 0.192475 0.220972
vt 0.192475 0.139331
vt 0.724357 0.399638
vt 0.842592 0.350434
vt 0.842592 0.399638
vt 0.876332 0.392070
vt 0.978597 0.349511
vt 0.978597 0.392070
vt 0.694107 0.401258
vt 0.610136 0.272267
vt 0.694107 0.272267
vt 0.269105 0.209991
vt 0.267794 0.141027
vt 0.250970 0.209991
vt 0.250970 0.141027
vt 0.724358 0.391638
vt 0.842592 0.356631
vt 0.842592 0.391638
vt 0.876332 0.385151
vt 0.978597 0.354872
vt 0.978597 0.385151
vt 0.655089 0.401258
vt 0.595348 0.272267
vt 0.655089 0.272267
vt 0.448599 0.386829
vt 0.384849 0.288900
vt 0.448599 0.288900
vt 0.358072 0.195132
vt 0.428449 0.194087
vt 0.064618 0.191529
vt 0.132795 0.190517
vt 0.214811 0.220972
vt 0.213599 0.139331
vt 0.366141 0.625559
vt 0.414471 0.386829
vt 0.724358 0.269229
vt 0.876332 0.279274
vt 0.542472 0.401258
vt 0.940260 0.486181
vt 0.209653 0.695487
vt 0.767852 0.539382
vt 0.946502 0.988512
vt 0.524330 0.981187
vt 0.169124 0.220972
vt 0.289817 0.209991
vt 0.194045 0.220972
vt 0.251916 0.209991
vt 0.724358 0.314311
vt 0.876332 0.318267
vt 0.570727 0.401258
vt 0.358072 0.154780
vt 0.064618 0.152439
vt 0.461547 0.386829
vt 0.478518 0.386829
vt 0.358072 0.175878
vt 0.064618 0.172877
vt 0.724358 0.350434
vt 0.876332 0.349511
vt 0.610136 0.401258
vt 0.267794 0.209991
vt 0.724358 0.356632
vt 0.876332 0.354872
vt 0.595348 0.401258
vt 0.384849 0.386829
vt 0.358072 0.194087
vt 0.064618 0.190517
vt 0.213599 0.220972
vn 0.0561 -0.5967 -0.8005
vn -0.1046 -0.6869 0.7192
vn -0.0846 -0.6088 -0.7888
vn 0.1281 0.6214 -0.7729
vn -0.1343 0.6966 0.7047
vn 0.1496 0.6981 0.7002
vn -0.0679 -0.5372 0.8407
vn -0.7186 0.5683 -0.4008
vn -0.3869 -0.9194 -0.0704
vn -0.8213 0.4770 -0.3130
vn 0.1929 -0.4976 -0.8456
vn -0.8213 -0.4770 -0.3130
vn -0.3103 -0.3474 -0.8849
vn 0.2994 0.4174 -0.8579
vn 0.3039 -0.3482 -0.8867
vn -0.4123 0.5049 -0.7583
vn -0.5934 -0.6188 0.5147
vn -0.4123 -0.5049 -0.7583
vn 0.4042 -0.4929 0.7705
vn -0.2555 -0.1105 -0.9604
vn -0.4042 -0.4929 0.7705
vn -0.4042 0.4929 0.7705
vn 0.2393 0.1126 -0.9644
vn 0.4042 0.4929 0.7705
vn 0.2523 -0.1174 -0.9605
vn -0.7310 0.1744 0.6597
vn -0.7333 -0.1644 -0.6597
vn -0.7333 -0.1644 0.6597
vn 0.3228 0.5441 -0.7744
vn 0.1527 -0.0500 0.9870
vn 0.3765 0.4856 0.7889
vn 0.1967 0.4848 0.8522
vn 0.2956 -0.6514 0.6988
vn 0.0705 -0.6818 0.7281
vn -0.0024 0.7069 -0.7073
vn 0.1733 -0.7458 -0.6432
vn -0.3782 -0.5882 -0.7148
vn -0.2641 0.2477 0.9321
vn -0.5855 -0.3836 0.7141
vn -0.2505 -0.2348 0.9392
vn -0.1121 0.6175 -0.7785
vn -0.3853 0.5983 0.7026
vn -0.5457 0.4359 -0.7156
vn -0.2513 0.1082 -0.9618
vn 0.6181 0.6116 0.4939
vn -0.5264 0.7462 -0.4075
vn 0.7176 -0.5372 0.4432
vn 0.4651 -0.4558 0.7589
vn -0.5987 -0.7003 -0.3886
vn -0.5653 -0.3871 -0.7283
vn -0.5693 0.4310 0.7001
vn -0.7310 0.1744 -0.6597
vn 0.7231 0.6673 0.1781
vn -0.6503 0.7521 -0.1071
vn 0.7231 -0.6673 0.1781
vn -0.6503 -0.7521 -0.1071
vn 0.7107 0.6319 -0.3092
vn -0.5626 0.8267 0.0067
vn 0.7107 -0.6319 -0.3092
vn -0.5626 -0.8267 0.0067
vn 0.1929 0.4976 -0.8457
vn -0.4075 -0.6054 0.6837
vn 0.2624 -0.6133 -0.7449
vn 0.3669 0.5954 0.7147
vn -0.3487 0.5691 -0.7446
vn 0.5869 -0.6203 0.5202
vn -0.6623 -0.6565 0.3611
vn 0.6622 -0.6547 0.3644
vn -0.6797 0.6536 0.3328
vn 0.5752 0.6840 0.4485
vn -0.5813 0.6822 0.4435
vn 0.6793 0.6517 0.3372
vn 0.6611 -0.6522 -0.3709
vn -0.6612 -0.6536 -0.3681
vn -0.6756 0.6514 -0.3453
vn 0.6753 0.6498 -0.3488
vn -0.3056 0.4165 -0.8562
vn -0.6704 -0.7391 -0.0649
vn 0.2630 0.9648 0.0008
vn 0.9605 -0.2780 0.0055
vn -0.6937 0.7169 -0.0683
vn -0.6814 -0.7109 -0.1740
vn 0.9486 -0.2655 0.1722
vn -0.7009 0.6908 -0.1771
vn 0.2841 0.9568 0.0610
vn -0.6486 -0.7248 -0.2322
vn 0.8929 -0.2947 0.3403
vn -0.6673 0.7054 -0.2389
vn 0.2605 0.9601 0.1021
vn -0.5118 -0.7635 -0.3939
vn 0.8291 -0.2886 0.4789
vn -0.5298 0.7454 -0.4045
vn 0.2796 0.9384 0.2033
vn 0.6325 -0.3577 0.6870
vn -0.1564 -0.9802 0.1216
vn -0.6990 -0.6348 -0.3294
vn 0.2234 0.9265 0.3027
vn 0.4531 -0.3780 0.8073
vn -0.9176 -0.2380 0.3182
vn 0.1432 0.9005 0.4105
vn -0.7097 0.6191 -0.3361
vn -0.9114 0.1071 0.3972
vn -0.6182 -0.6067 0.4998
vn 0.6185 -0.6069 -0.4991
vn -0.6185 -0.6069 -0.4991
vn -0.6185 0.6069 -0.4991
vn 0.6182 0.6067 0.4998
vn 0.6185 0.6069 -0.4991
vn 0.6182 -0.6067 0.4998
vn -0.6182 0.6067 0.4998
vn 0.4050 -0.4943 -0.7692
vn -0.4050 -0.4942 -0.7692
vn -0.4050 0.4942 -0.7692
vn 0.4050 0.4943 -0.7692
vn -0.4791 0.5871 0.6525
vn -0.6434 -0.6261 0.4404
vn -0.4791 -0.5871 0.6525
vn 0.6426 -0.6254 -0.4426
vn -0.6426 -0.6254 -0.4426
vn -0.6426 0.6254 -0.4426
vn 0.6434 0.6261 0.4405
vn 0.6426 0.6254 -0.4426
vn 0.6434 -0.6261 0.4404
vn -0.6434 0.6261 0.4404
vn 0.4765 -0.5844 -0.6567
vn -0.4766 -0.5844 -0.6567
vn -0.4766 0.5844 -0.6567
vn 0.4765 0.5844 -0.6567
vn -0.4278 0.5264 0.7347
vn -0.6264 -0.6129 0.4816
vn -0.4278 -0.5264 0.7347
vn 0.6210 -0.6088 -0.4935
vn -0.6210 -0.6088 -0.4935
vn -0.6210 0.6088 -0.4935
vn 0.6264 0.6129 0.4816
vn 0.6210 0.6088 -0.4935
vn 0.6264 -0.6129 0.4816
vn -0.6264 0.6129 0.4816
vn 0.4123 -0.5049 -0.7583
vn 0.4123 0.5049 -0.7583
vn 0.4791 -0.5871 0.6525
vn 0.4791 0.5871 0.6525
vn 0.4278 -0.5264 0.7347
vn 0.4278 0.5264 0.7347
usemtl Material_#26
s 1
f 1/1/1 2/2/2 3/3/3
f 4/4/4 5/5/5 6/6/6
f 7/7/7 8/8/8 9/9/9
f 10/10/10 11/11/11 12/12/12
f 13/13/13 14/14/14 15/15/15
f 16/16/16 17/17/17 18/18/18
f 19/19/19 20/20/20 21/21/21
f 22/22/22 23/23/23 24/24/24
f 24/25/24 25/26/25 19/27/19
f 26/28/26 27/29/27 28/30/28
f 6/31/6 29/32/29 4/33/4
f 30/34/30 31/35/31 32/36/32
f 1/37/1 33/38/33 34/39/34
f 25/40/25 35/41/35 36/42/36
f 2/43/2 37/44/37 3/45/3
f 38/46/38 39/47/39 40/48/40
f 41/49/41 42/50/42 5/51/5
f 20/52/20 43/53/43 44/54/44
f 35/41/35 45/55/45 46/56/46
f 31/57/31 47/58/47 45/55/45
f 36/42/36 47/58/47 48/59/48
f 35/41/35 49/60/49 36/42/36
f 39/47/39 27/29/27 50/61/50
f 51/62/51 28/30/28 39/47/39
f 43/53/43 26/28/26 51/62/51
f 43/53/43 27/29/27 52/63/52
f 46/56/46 53/64/53 54/65/54
f 47/58/47 53/64/53 45/55/45
f 49/60/49 55/66/55 47/58/47
f 46/56/46 56/67/56 49/60/49
f 54/65/54 57/68/57 58/69/58
f 55/66/55 57/68/57 53/64/53
f 56/67/56 59/70/59 55/66/55
f 54/65/54 60/71/60 56/67/56
f 58/69/58 61/72/61 10/10/10
f 59/70/59 61/72/61 57/68/57
f 60/71/60 11/11/11 59/70/59
f 58/69/58 12/12/12 60/71/60
f 30/73/30 2/2/2 34/74/34
f 40/48/40 62/75/62 2/43/2
f 50/61/50 62/75/62 39/47/39
f 20/52/20 37/44/37 50/61/50
f 25/76/25 3/3/3 20/77/20
f 25/40/25 63/78/63 1/37/1
f 48/59/48 63/78/63 36/42/36
f 30/79/30 33/38/33 48/59/48
f 32/80/32 5/81/5 38/82/38
f 32/36/32 64/83/64 6/84/6
f 35/41/35 64/85/64 31/57/31
f 23/86/23 29/32/29 35/41/35
f 44/87/44 4/4/4 23/88/23
f 44/54/44 65/89/65 41/49/41
f 51/62/51 65/89/65 43/53/43
f 38/46/38 42/50/42 51/62/51
f 66/90/66 67/91/67 68/92/68
f 17/93/17 69/94/69 67/91/67
f 70/95/70 69/94/69 71/96/71
f 66/90/66 72/97/72 70/95/70
f 67/91/67 73/98/73 68/92/68
f 69/94/69 74/99/74 67/91/67
f 72/97/72 75/100/75 69/94/69
f 68/92/68 76/101/76 72/97/72
f 74/99/74 15/15/15 73/98/73
f 75/100/75 13/13/13 74/99/74
f 75/100/75 14/14/14 77/102/77
f 76/101/76 15/15/15 14/14/14
f 30/103/30 78/104/78 40/105/40
f 30/106/30 79/107/79 80/108/80
f 32/109/32 81/110/81 79/111/79
f 40/105/40 81/110/81 38/112/38
f 80/113/80 82/114/82 78/104/78
f 79/107/79 83/115/83 80/108/80
f 79/111/79 84/116/84 85/117/85
f 78/104/78 84/116/84 81/110/81
f 83/118/83 86/119/86 82/114/82
f 85/120/85 87/121/87 83/115/83
f 85/117/85 88/122/88 89/123/89
f 82/114/82 88/122/88 84/116/84
f 87/124/87 90/125/90 86/119/86
f 89/126/89 91/127/91 87/121/87
f 89/123/89 92/128/92 93/129/93
f 90/125/90 88/122/88 86/119/86
f 94/130/94 95/131/95 96/132/96
f 97/133/97 98/134/98 94/135/94
f 97/136/97 99/137/99 100/138/100
f 96/132/96 99/137/99 101/139/101
f 91/140/91 96/132/96 90/125/90
f 94/135/94 93/141/93 97/133/97
f 101/139/101 93/129/93 92/128/92
f 101/139/101 90/125/90 96/132/96
f 98/142/98 9/9/9 95/131/95
f 100/143/100 7/144/7 98/134/98
f 100/138/100 8/8/8 102/145/102
f 99/137/99 9/9/9 8/8/8
f 22/146/22 103/147/103 21/148/21
f 104/149/104 103/150/103 105/151/105
f 106/152/106 107/153/107 108/154/108
f 108/155/108 109/156/109 104/157/104
f 110/158/110 105/159/105 103/147/103
f 111/160/111 105/151/105 112/161/112
f 113/162/113 108/154/108 114/163/114
f 114/164/114 104/157/104 111/165/111
f 115/166/115 116/167/116 117/168/117
f 118/169/118 116/170/116 119/171/119
f 120/172/120 121/173/121 122/174/122
f 122/175/122 123/176/123 118/177/118
f 124/178/124 119/179/119 116/167/116
f 125/180/125 119/171/119 126/181/126
f 127/182/127 122/174/122 128/183/128
f 128/184/128 118/177/118 125/185/125
f 129/186/129 130/187/130 131/188/131
f 132/189/132 130/190/130 133/191/133
f 134/192/134 135/193/135 136/194/136
f 136/195/136 137/196/137 132/197/132
f 138/198/138 133/199/133 130/187/130
f 139/200/139 133/191/133 18/201/18
f 16/202/16 136/194/136 140/203/140
f 140/204/140 132/197/132 139/205/139
f 141/206/141 112/207/112 117/208/117
f 115/209/115 114/210/114 142/211/142
f 142/212/142 111/213/111 141/214/141
f 105/159/105 113/215/113 112/216/112
f 109/217/109 21/218/21 103/150/103
f 110/219/110 24/220/24 107/153/107
f 109/156/109 24/221/24 19/222/19
f 44/223/44 21/224/21 20/225/20
f 112/226/112 115/227/115 117/228/117
f 123/229/123 117/230/117 116/170/116
f 124/231/124 142/232/142 121/173/121
f 123/176/123 142/233/142 141/234/141
f 143/235/143 126/236/126 131/237/131
f 129/238/129 128/239/128 144/240/144
f 144/241/144 125/242/125 143/243/143
f 120/244/120 126/245/126 119/179/119
f 133/199/133 16/246/16 18/247/18
f 66/248/66 18/249/18 17/250/17
f 71/251/71 140/252/140 70/253/70
f 70/254/70 139/255/139 66/256/66
f 127/257/127 131/258/131 126/259/126
f 137/260/137 131/261/131 130/190/130
f 138/262/138 144/263/144 135/193/135
f 135/264/135 143/265/143 137/196/137
f 1/1/1 34/74/34 2/2/2
f 4/4/4 41/266/41 5/5/5
f 7/7/7 102/145/102 8/8/8
f 10/10/10 61/72/61 11/11/11
f 13/13/13 77/102/77 14/14/14
f 16/16/16 71/267/71 17/17/17
f 19/19/19 25/268/25 20/20/20
f 22/22/22 44/269/44 23/23/23
f 24/25/24 23/270/23 25/26/25
f 26/28/26 52/63/52 27/29/27
f 6/31/6 64/85/64 29/32/29
f 30/34/30 48/271/48 31/35/31
f 1/37/1 63/78/63 33/38/33
f 25/40/25 23/86/23 35/41/35
f 2/43/2 62/75/62 37/44/37
f 38/46/38 51/62/51 39/47/39
f 41/49/41 65/89/65 42/50/42
f 20/52/20 50/61/50 43/53/43
f 35/41/35 31/57/31 45/55/45
f 31/57/31 48/59/48 47/58/47
f 36/42/36 49/60/49 47/58/47
f 35/41/35 46/56/46 49/60/49
f 39/47/39 28/30/28 27/29/27
f 51/62/51 26/28/26 28/30/28
f 43/53/43 52/63/52 26/28/26
f 43/53/43 50/61/50 27/29/27
f 46/56/46 45/55/45 53/64/53
f 47/58/47 55/66/55 53/64/53
f 49/60/49 56/67/56 55/66/55
f 46/56/46 54/65/54 56/67/56
f 54/65/54 53/64/53 57/68/57
f 55/66/55 59/70/59 57/68/57
f 56/67/56 60/71/60 59/70/59
f 54/65/54 58/69/58 60/71/60
f 58/69/58 57/68/57 61/72/61
f 59/70/59 11/11/11 61/72/61
f 60/71/60 12/12/12 11/11/11
f 58/69/58 10/10/10 12/12/12
f 30/73/30 40/272/40 2/2/2
f 40/48/40 39/47/39 62/75/62
f 50/61/50 37/44/37 62/75/62
f 20/52/20 3/45/3 37/44/37
f 25/76/25 1/1/1 3/3/3
f 25/40/25 36/42/36 63/78/63
f 48/59/48 33/38/33 63/78/63
f 30/79/30 34/39/34 33/38/33
f 32/80/32 6/273/6 5/81/5
f 32/36/32 31/35/31 64/83/64
f 35/41/35 29/32/29 64/85/64
f 23/86/23 4/33/4 29/32/29
f 44/87/44 41/266/41 4/4/4
f 44/54/44 43/53/43 65/89/65
f 51/62/51 42/50/42 65/89/65
f 38/46/38 5/51/5 42/50/42
f 66/90/66 17/93/17 67/91/67
f 17/93/17 71/96/71 69/94/69
f 70/95/70 72/97/72 69/94/69
f 66/90/66 68/92/68 72/97/72
f 67/91/67 74/99/74 73/98/73
f 69/94/69 75/100/75 74/99/74
f 72/97/72 76/101/76 75/100/75
f 68/92/68 73/98/73 76/101/76
f 74/99/74 13/13/13 15/15/15
f 75/100/75 77/102/77 13/13/13
f 75/100/75 76/101/76 14/14/14
f 76/101/76 73/98/73 15/15/15
f 30/103/30 80/113/80 78/104/78
f 30/106/30 32/274/32 79/107/79
f 32/109/32 38/112/38 81/110/81
f 40/105/40 78/104/78 81/110/81
f 80/113/80 83/118/83 82/114/82
f 79/107/79 85/120/85 83/115/83
f 79/111/79 81/110/81 84/116/84
f 78/104/78 82/114/82 84/116/84
f 83/118/83 87/124/87 86/119/86
f 85/120/85 89/126/89 87/121/87
f 85/117/85 84/116/84 88/122/88
f 82/114/82 86/119/86 88/122/88
f 87/124/87 91/140/91 90/125/90
f 89/126/89 93/141/93 91/127/91
f 89/123/89 88/122/88 92/128/92
f 90/125/90 92/128/92 88/122/88
f 94/130/94 98/142/98 95/131/95
f 97/133/97 100/143/100 98/134/98
f 97/136/97 101/139/101 99/137/99
f 96/132/96 95/131/95 99/137/99
f 91/140/91 94/130/94 96/132/96
f 94/135/94 91/127/91 93/141/93
f 101/139/101 97/136/97 93/129/93
f 101/139/101 92/128/92 90/125/90
f 98/142/98 7/7/7 9/9/9
f 100/143/100 102/275/102 7/144/7
f 100/138/100 99/137/99 8/8/8
f 99/137/99 95/131/95 9/9/9
f 22/146/22 110/158/110 103/147/103
f 104/149/104 109/217/109 103/150/103
f 106/152/106 110/219/110 107/153/107
f 108/155/108 107/276/107 109/156/109
f 110/158/110 106/277/106 105/159/105
f 111/160/111 104/149/104 105/151/105
f 113/162/113 106/152/106 108/154/108
f 114/164/114 108/155/108 104/157/104
f 115/166/115 124/178/124 116/167/116
f 118/169/118 123/229/123 116/170/116
f 120/172/120 124/231/124 121/173/121
f 122/175/122 121/278/121 123/176/123
f 124/178/124 120/244/120 119/179/119
f 125/180/125 118/169/118 119/171/119
f 127/182/127 120/172/120 122/174/122
f 128/184/128 122/175/122 118/177/118
f 129/186/129 138/198/138 130/187/130
f 132/189/132 137/260/137 130/190/130
f 134/192/134 138/262/138 135/193/135
f 136/195/136 135/264/135 137/196/137
f 138/198/138 134/279/134 133/199/133
f 139/200/139 132/189/132 133/191/133
f 16/202/16 134/192/134 136/194/136
f 140/204/140 136/195/136 132/197/132
f 141/206/141 111/280/111 112/207/112
f 115/209/115 113/281/113 114/210/114
f 142/212/142 114/282/114 111/213/111
f 105/159/105 106/277/106 113/215/113
f 109/217/109 19/283/19 21/218/21
f 110/219/110 22/284/22 24/220/24
f 109/156/109 107/276/107 24/221/24
f 44/223/44 22/285/22 21/224/21
f 112/226/112 113/286/113 115/227/115
f 123/229/123 141/287/141 117/230/117
f 124/231/124 115/288/115 142/232/142
f 123/176/123 121/278/121 142/233/142
f 143/235/143 125/289/125 126/236/126
f 129/238/129 127/290/127 128/239/128
f 144/241/144 128/291/128 125/242/125
f 120/244/120 127/292/127 126/245/126
f 133/199/133 134/279/134 16/246/16
f 66/248/66 139/293/139 18/249/18
f 71/251/71 16/294/16 140/252/140
f 70/254/70 140/295/140 139/255/139
f 127/257/127 129/296/129 131/258/131
f 137/260/137 143/297/143 131/261/131
f 138/262/138 129/298/129 144/263/144
f 135/264/135 144/299/144 143/265/143
